<svg width="87" height="63" viewBox="0 0 87 63" fill="none" xmlns="http://www.w3.org/2000/svg">
<path d="M56.3461 3.07186L26.7692 41.8544L14.0151 25.4881C12.7389 23.863 10.8636 22.807 8.80194 22.5524C6.74026 22.2979 4.661 22.8656 3.02158 24.1308C1.38217 25.3959 0.316891 27.2548 0.0600973 29.2986C-0.196697 31.3423 0.376029 33.4035 1.65228 35.0287L20.666 59.1514C21.4029 60.0758 22.3425 60.8217 23.4135 61.3324C24.4846 61.8431 25.6589 62.1052 26.8474 62.0989C28.0424 62.096 29.2208 61.8219 30.2923 61.2975C31.3638 60.7731 32.2999 60.0125 33.0288 59.0738L68.7872 12.5348C70.0531 10.8891 70.6076 8.81226 70.3288 6.76124C70.05 4.71021 68.9607 2.85298 67.3005 1.59812C65.6403 0.343254 63.5453 -0.206452 61.4763 0.0699268C59.4072 0.346306 57.5337 1.42614 56.2678 3.07186H56.3461Z" fill="#3C71C4"/>
<path d="M30.6539 3.07186L60.2308 41.8544L72.9849 25.4881C74.2611 23.863 76.1364 22.807 78.1981 22.5524C80.2597 22.2979 82.339 22.8656 83.9784 24.1308C85.6178 25.3959 86.6831 27.2548 86.9399 29.2986C87.1967 31.3423 86.624 33.4035 85.3477 35.0287L66.334 59.1514C65.5971 60.0758 64.6575 60.8217 63.5865 61.3324C62.5154 61.8431 61.3411 62.1052 60.1526 62.0989C58.9576 62.096 57.7792 61.8219 56.7077 61.2975C55.6362 60.7731 54.7001 60.0125 53.9712 59.0738L18.2128 12.5348C16.9469 10.8891 16.3924 8.81226 16.6712 6.76124C16.95 4.71021 18.0393 2.85298 19.6995 1.59812C21.3597 0.343254 23.4547 -0.206452 25.5237 0.0699268C27.5928 0.346306 29.4663 1.42614 30.7322 3.07186H30.6539Z" fill="#3C71C4"/>
</svg>
